<?xml version="1.0" encoding="utf-8"?>
<!-- Generated by IcoMoon.io -->
<!DOCTYPE svg PUBLIC "-//W3C//DTD SVG 1.1//EN" "http://www.w3.org/Graphics/SVG/1.1/DTD/svg11.dtd">
<svg version="1.1" xmlns="http://www.w3.org/2000/svg" xmlns:xlink="http://www.w3.org/1999/xlink" width="28" height="32" viewBox="0 0 28 32">
<path d="M12.852 31.69c-0.103 0-0.206-0.052-0.258-0.155s-0.103-0.258-0.206-0.413c-0.258-0.516-0.516-1.084-0.361-1.497s0.929-0.723 1.342-0.877c-0.052-0.465-0.155-1.342 0.361-1.755 0.465-0.361 1.084-0.206 1.497-0.103 0.103 0.052 0.31 0.103 0.361 0.103 0.103-0.258 0.155-1.29 0.155-2.116 0-0.052 0-0.155 0.052-0.206s1.187-1.29 2.323-1.445c1.084-0.155 2.581 1.342 2.89 1.703 0.413 0.103 2.374 0.568 3.51 1.135 0.103 0.052 0.206 0.206 0.103 0.361-0.052 0.103-0.206 0.206-0.361 0.103-1.239-0.619-3.51-1.135-3.51-1.135-0.052 0-0.103-0.052-0.155-0.103-0.413-0.465-1.755-1.703-2.529-1.6-0.826 0.103-1.703 0.981-1.961 1.239 0.052 2.323-0.31 2.477-0.465 2.529-0.206 0.052-0.465 0-0.723-0.052-0.361-0.103-0.774-0.206-1.032 0-0.361 0.31-0.206 1.187-0.155 1.497 0.052 0.155-0.052 0.258-0.155 0.31-0.619 0.206-1.187 0.465-1.239 0.671s0.206 0.774 0.361 1.084c0.103 0.206 0.155 0.361 0.206 0.465 0.052 0.155-0.052 0.258-0.155 0.31 0.155-0.052 0.155-0.052 0.103-0.052zM6.245 29.316c-0.103 0-0.155-0.052-0.206-0.103-0.103-0.103-0.052-0.258 0.052-0.361 0.774-0.568 1.394-2.116 1.394-2.116 0-0.052 0.052-0.103 0.103-0.103 0 0 0.671-0.465 0.877-1.032s0-1.394 0-1.394c0-0.052 0-0.103 0-0.155 0.31-0.877 0.516-1.961 0.361-2.219-0.206-0.31-0.981-0.619-1.445-0.774-0.052 0-0.103-0.052-0.155-0.103 0 0-0.516-0.877-1.445-1.032-0.774-0.103-1.652-0.619-1.652-1.858 0-1.084 1.032-2.787 1.084-2.839 0-0.052 0.052-0.052 0.103-0.103 0.465-0.206 1.032-0.619 1.084-0.774 0.103-0.258 0.155-0.929 0.206-1.187 0-0.052 0-0.103 0.052-0.103 0.258-0.465 0.877-1.806 0.465-2.581-0.103-0.155-0.516-0.361-0.877-0.465-0.052 0-0.103-0.052-0.155-0.103l-1.187-1.806c-0.103-0.103-0.052-0.258 0.052-0.361 0.052 0 0.206 0 0.31 0.103l1.135 1.703c0.258 0.103 0.877 0.31 1.084 0.671 0.568 1.032-0.258 2.684-0.413 3.045 0 0.206-0.052 0.929-0.206 1.29-0.155 0.413-0.929 0.826-1.29 0.981-0.155 0.31-0.929 1.703-0.929 2.529 0 0.877 0.619 1.29 1.239 1.342 1.032 0.155 1.6 0.929 1.755 1.239 0.361 0.103 1.342 0.413 1.652 0.981s-0.155 2.116-0.31 2.581c0.052 0.258 0.155 0.981-0.052 1.6s-0.774 1.084-0.981 1.239c-0.155 0.31-0.774 1.652-1.548 2.271-0.052 0-0.103 0-0.155 0z"></path>
<path d="M13.935 31.742c-7.535 0-13.677-6.142-13.677-13.677s6.142-13.677 13.677-13.677c0.052 0 0.155 0 0.206 0h0.103c0.155 0 0.258 0.103 0.258 0.258s-0.103 0.258-0.258 0.258h-0.103c-0.052 0-0.103 0-0.155 0-7.329 0-13.213 5.884-13.213 13.161s5.884 13.161 13.161 13.161 13.161-5.884 13.161-13.161c0-1.394-0.206-2.735-0.619-4.026-0.052-0.155 0.052-0.258 0.155-0.31 0.155-0.052 0.258 0.052 0.31 0.155 0.413 1.342 0.671 2.787 0.671 4.232 0 7.484-6.142 13.626-13.677 13.626z"></path>
<path d="M20.129 16.258c-0.052 0-0.103 0-0.155-0.052-0.258-0.258-6.297-5.884-6.297-9.652 0-3.923 3.303-6.297 6.452-6.297s6.452 2.374 6.452 6.297c0 3.768-6.039 9.394-6.297 9.652-0.052 0.052-0.103 0.052-0.155 0.052zM20.129 0.774c-2.942 0-5.935 2.168-5.935 5.781 0 3.2 4.955 8.155 5.935 9.084 0.981-0.981 5.935-5.884 5.935-9.084 0-3.613-2.994-5.781-5.935-5.781z"></path>
<path d="M20.129 9.032c-1.29 0-2.323-1.032-2.323-2.323s1.032-2.323 2.323-2.323 2.323 1.032 2.323 2.323-1.032 2.323-2.323 2.323zM20.129 4.903c-0.981 0-1.806 0.826-1.806 1.806s0.826 1.806 1.806 1.806 1.806-0.826 1.806-1.806-0.826-1.806-1.806-1.806z"></path>
</svg>
