<?xml version="1.0" encoding="utf-8"?>
<!-- Generated by IcoMoon.io -->
<!DOCTYPE svg PUBLIC "-//W3C//DTD SVG 1.1//EN" "http://www.w3.org/Graphics/SVG/1.1/DTD/svg11.dtd">
<svg version="1.1" xmlns="http://www.w3.org/2000/svg" xmlns:xlink="http://www.w3.org/1999/xlink" width="13" height="32" viewBox="0 0 13 32">
<path d="M11.107 10.050l-4.496 16.132c-0.264 0.793-0.264 1.587-0.264 1.851s0 0.264 0.264 0.529c0 0.264 0.264 0.264 0.529 0.264s0.529 0 0.793-0.264c0.793-0.529 1.587-1.587 2.38-3.174l0.793 0.529c-2.645 3.702-5.025 5.818-7.669 5.818-1.058 0-1.851-0.264-2.38-0.793s-0.793-1.322-0.793-2.116c0-0.529 0-1.322 0.264-2.116l3.174-10.843c0.529-1.322 0.529-2.116 0.529-2.645 0-0.264-0.264-0.529-0.529-0.793s-0.529-0.264-1.058-0.264c-0.264 0-0.529 0-0.793 0l0.264-0.793z"></path>
<path d="M12.165 6.083c-0.529 0.529-1.322 1.058-2.38 1.058-0.793 0-1.587-0.264-2.38-1.058-0.529-0.793-0.793-1.587-0.793-2.38s0.264-1.587 1.058-2.38c0.529-0.529 1.322-1.058 2.38-1.058s1.851 0.264 2.38 1.058c0.529 0.529 0.793 1.322 0.793 2.38 0 0.793-0.264 1.587-1.058 2.38z"></path>
</svg>
