<?xml version="1.0" encoding="utf-8"?>
<!-- Generated by IcoMoon.io -->
<!DOCTYPE svg PUBLIC "-//W3C//DTD SVG 1.1//EN" "http://www.w3.org/Graphics/SVG/1.1/DTD/svg11.dtd">
<svg version="1.1" xmlns="http://www.w3.org/2000/svg" xmlns:xlink="http://www.w3.org/1999/xlink" width="33" height="32" viewBox="0 0 33 32">
<path d="M19.57 16.926c-1.322 0.793-1.322 1.058-1.322 1.587v2.645h-5.289v-2.645c0-3.438 2.116-5.025 3.702-6.083 1.322-0.793 1.587-1.058 1.587-1.851 0-1.587-1.058-2.645-2.645-2.645-1.058 0-1.851 0.529-2.38 1.322l-1.322 2.38-4.496-2.645 1.322-2.38c1.322-2.38 3.967-3.967 6.876-3.967 4.496 0 7.934 3.438 7.934 7.934 0 3.702-2.38 5.289-3.967 6.347z"></path>
<path d="M15.603 29.091c-1.587 0-2.645-1.058-2.645-2.645s1.058-2.645 2.645-2.645 2.645 1.058 2.645 2.645-1.058 2.645-2.645 2.645z"></path>
</svg>
