<svg style="position: absolute; width: 0; height: 0; overflow: hidden;" version="1.1" xmlns="http://www.w3.org/2000/svg" xmlns:xlink="http://www.w3.org/1999/xlink">
<defs>
<symbol id="icon-search" viewBox="0 0 32 32">
<title>search</title>
<path class="path1" d="M30.171 26.667l-5.79-5.943c1.371-2.133 2.286-4.724 2.286-7.314 0-7.314-5.943-13.41-13.257-13.41s-13.41 5.943-13.41 13.41 5.943 13.41 13.257 13.41c2.743 0 5.181-0.762 7.314-2.286l5.79 5.79c0.457 0.457 1.371 0.457 1.829 0l1.829-1.829c0.61-0.457 0.61-1.371 0.152-1.829zM13.257 24.076c-5.79 0-10.667-4.876-10.667-10.667s4.724-10.667 10.667-10.667 10.667 4.876 10.667 10.667-4.724 10.667-10.667 10.667z"></path>
</symbol>
<symbol id="icon-search_2" viewBox="0 0 32 32">
<title>search_2</title>
<path class="path1" d="M13.553 23.529c-5.459 0-9.788-4.141-9.788-9.412s4.329-9.6 9.788-9.6 9.788 4.329 9.788 9.6-4.329 9.412-9.788 9.412v0zM24.282 22.024c1.694-2.259 2.635-4.894 2.635-7.906 0-7.341-6.024-13.365-13.365-13.365s-13.553 6.024-13.553 13.365 6.212 13.365 13.553 13.365c3.012 0 6.024-0.941 8.094-2.635l5.835 5.647c0.376 0.376 0.941 0.565 1.318 0.565s0.941-0.188 1.318-0.565c0.753-0.753 0.753-1.882 0-2.635l-5.835-5.835z"></path>
</symbol>
<symbol id="icon-country_illustration" viewBox="0 0 28 32">
<title>country_illustration</title>
<path class="path1" d="M12.852 31.69c-0.103 0-0.206-0.052-0.258-0.155s-0.103-0.258-0.206-0.413c-0.258-0.516-0.516-1.084-0.361-1.497s0.929-0.723 1.342-0.877c-0.052-0.465-0.155-1.342 0.361-1.755 0.465-0.361 1.084-0.206 1.497-0.103 0.103 0.052 0.31 0.103 0.361 0.103 0.103-0.258 0.155-1.29 0.155-2.116 0-0.052 0-0.155 0.052-0.206s1.187-1.29 2.323-1.445c1.084-0.155 2.581 1.342 2.89 1.703 0.413 0.103 2.374 0.568 3.51 1.135 0.103 0.052 0.206 0.206 0.103 0.361-0.052 0.103-0.206 0.206-0.361 0.103-1.239-0.619-3.51-1.135-3.51-1.135-0.052 0-0.103-0.052-0.155-0.103-0.413-0.465-1.755-1.703-2.529-1.6-0.826 0.103-1.703 0.981-1.961 1.239 0.052 2.323-0.31 2.477-0.465 2.529-0.206 0.052-0.465 0-0.723-0.052-0.361-0.103-0.774-0.206-1.032 0-0.361 0.31-0.206 1.187-0.155 1.497 0.052 0.155-0.052 0.258-0.155 0.31-0.619 0.206-1.187 0.465-1.239 0.671s0.206 0.774 0.361 1.084c0.103 0.206 0.155 0.361 0.206 0.465 0.052 0.155-0.052 0.258-0.155 0.31 0.155-0.052 0.155-0.052 0.103-0.052zM6.245 29.316c-0.103 0-0.155-0.052-0.206-0.103-0.103-0.103-0.052-0.258 0.052-0.361 0.774-0.568 1.394-2.116 1.394-2.116 0-0.052 0.052-0.103 0.103-0.103 0 0 0.671-0.465 0.877-1.032s0-1.394 0-1.394c0-0.052 0-0.103 0-0.155 0.31-0.877 0.516-1.961 0.361-2.219-0.206-0.31-0.981-0.619-1.445-0.774-0.052 0-0.103-0.052-0.155-0.103 0 0-0.516-0.877-1.445-1.032-0.774-0.103-1.652-0.619-1.652-1.858 0-1.084 1.032-2.787 1.084-2.839 0-0.052 0.052-0.052 0.103-0.103 0.465-0.206 1.032-0.619 1.084-0.774 0.103-0.258 0.155-0.929 0.206-1.187 0-0.052 0-0.103 0.052-0.103 0.258-0.465 0.877-1.806 0.465-2.581-0.103-0.155-0.516-0.361-0.877-0.465-0.052 0-0.103-0.052-0.155-0.103l-1.187-1.806c-0.103-0.103-0.052-0.258 0.052-0.361 0.052 0 0.206 0 0.31 0.103l1.135 1.703c0.258 0.103 0.877 0.31 1.084 0.671 0.568 1.032-0.258 2.684-0.413 3.045 0 0.206-0.052 0.929-0.206 1.29-0.155 0.413-0.929 0.826-1.29 0.981-0.155 0.31-0.929 1.703-0.929 2.529 0 0.877 0.619 1.29 1.239 1.342 1.032 0.155 1.6 0.929 1.755 1.239 0.361 0.103 1.342 0.413 1.652 0.981s-0.155 2.116-0.31 2.581c0.052 0.258 0.155 0.981-0.052 1.6s-0.774 1.084-0.981 1.239c-0.155 0.31-0.774 1.652-1.548 2.271-0.052 0-0.103 0-0.155 0z"></path>
<path class="path2" d="M13.935 31.742c-7.535 0-13.677-6.142-13.677-13.677s6.142-13.677 13.677-13.677c0.052 0 0.155 0 0.206 0h0.103c0.155 0 0.258 0.103 0.258 0.258s-0.103 0.258-0.258 0.258h-0.103c-0.052 0-0.103 0-0.155 0-7.329 0-13.213 5.884-13.213 13.161s5.884 13.161 13.161 13.161 13.161-5.884 13.161-13.161c0-1.394-0.206-2.735-0.619-4.026-0.052-0.155 0.052-0.258 0.155-0.31 0.155-0.052 0.258 0.052 0.31 0.155 0.413 1.342 0.671 2.787 0.671 4.232 0 7.484-6.142 13.626-13.677 13.626z"></path>
<path class="path3" d="M20.129 16.258c-0.052 0-0.103 0-0.155-0.052-0.258-0.258-6.297-5.884-6.297-9.652 0-3.923 3.303-6.297 6.452-6.297s6.452 2.374 6.452 6.297c0 3.768-6.039 9.394-6.297 9.652-0.052 0.052-0.103 0.052-0.155 0.052zM20.129 0.774c-2.942 0-5.935 2.168-5.935 5.781 0 3.2 4.955 8.155 5.935 9.084 0.981-0.981 5.935-5.884 5.935-9.084 0-3.613-2.994-5.781-5.935-5.781z"></path>
<path class="path4" d="M20.129 9.032c-1.29 0-2.323-1.032-2.323-2.323s1.032-2.323 2.323-2.323 2.323 1.032 2.323 2.323-1.032 2.323-2.323 2.323zM20.129 4.903c-0.981 0-1.806 0.826-1.806 1.806s0.826 1.806 1.806 1.806 1.806-0.826 1.806-1.806-0.826-1.806-1.806-1.806z"></path>
</symbol>
<symbol id="icon-arrow3" viewBox="0 0 18 32">
<title>arrow3</title>
<path class="path1" d="M16 31.6c-0.4 0-0.8-0.2-1-0.4l-14-14c-0.6-0.6-0.6-1.6 0-2.2l14-14c0.6-0.6 1.6-0.6 2.2 0s0.6 1.6 0 2.2l-13.2 12.8 13 13c0.6 0.6 0.6 1.6 0 2.2-0.2 0.4-0.6 0.4-1 0.4z"></path>
</symbol>
<symbol id="icon-arrow2" viewBox="0 0 48 32">
<title>arrow2</title>
<path class="path1" d="M0 1.6l24 27.733 24-27.733z"></path>
</symbol>
<symbol id="icon-info" viewBox="0 0 13 32">
<title>info</title>
<path class="path1" d="M11.107 10.050l-4.496 16.132c-0.264 0.793-0.264 1.587-0.264 1.851s0 0.264 0.264 0.529c0 0.264 0.264 0.264 0.529 0.264s0.529 0 0.793-0.264c0.793-0.529 1.587-1.587 2.38-3.174l0.793 0.529c-2.645 3.702-5.025 5.818-7.669 5.818-1.058 0-1.851-0.264-2.38-0.793s-0.793-1.322-0.793-2.116c0-0.529 0-1.322 0.264-2.116l3.174-10.843c0.529-1.322 0.529-2.116 0.529-2.645 0-0.264-0.264-0.529-0.529-0.793s-0.529-0.264-1.058-0.264c-0.264 0-0.529 0-0.793 0l0.264-0.793z"></path>
<path class="path2" d="M12.165 6.083c-0.529 0.529-1.322 1.058-2.38 1.058-0.793 0-1.587-0.264-2.38-1.058-0.529-0.793-0.793-1.587-0.793-2.38s0.264-1.587 1.058-2.38c0.529-0.529 1.322-1.058 2.38-1.058s1.851 0.264 2.38 1.058c0.529 0.529 0.793 1.322 0.793 2.38 0 0.793-0.264 1.587-1.058 2.38z"></path>
</symbol>
<symbol id="icon-checkbox" viewBox="0 0 32 32">
<title>checkbox</title>
<path class="path1" d="M14 22.8l-6.8-6.8 2.8-2.8 4 4 8-8 2.8 2.8z"></path>
</symbol>
<symbol id="icon-download" viewBox="0 0 32 32">
<title>download</title>
<path class="path1" d="M13.867 0v8h-5.867l8 8 8-8h-5.867v-8z"></path>
<path class="path2" d="M24 0v4h4v16h-24v-16h4v-4h-5.867c-1.333 0-2.133 0.8-2.133 2.133v28c0 1.067 0.8 1.867 2.133 1.867h28c1.067 0 2.133-0.8 2.133-2.133v-27.733c-0.267-1.333-1.067-2.133-2.4-2.133h-5.867z"></path>
</symbol>
<symbol id="icon-arrow" viewBox="0 0 38 32">
<title>arrow</title>
<path class="path1" d="M36 15h-31.8l12.4-12.4-1.4-1.4-14.8 14.8 14.8 14.8 1.4-1.4-12.4-12.4h31.8z"></path>
</symbol>
</defs>
</svg>
