<?xml version="1.0" encoding="utf-8"?>
<!-- Generated by IcoMoon.io -->
<!DOCTYPE svg PUBLIC "-//W3C//DTD SVG 1.1//EN" "http://www.w3.org/Graphics/SVG/1.1/DTD/svg11.dtd">
<svg version="1.1" xmlns="http://www.w3.org/2000/svg" xmlns:xlink="http://www.w3.org/1999/xlink" width="32" height="32" viewBox="0 0 32 32">
<path d="M17.231 4.923h12.308v2.462h-12.308v-2.462z"></path>
<path d="M27.077 14.769h2.462v2.462h-2.462v-2.462z"></path>
<path d="M17.231 24.615h12.308v2.462h-12.308v-2.462z"></path>
<path d="M9.846 11.077c2.708 0 4.923-2.215 4.923-4.923s-2.215-4.923-4.923-4.923c-2.338 0-4.185 1.6-4.8 3.692h-2.585v2.462h2.585c0.615 2.092 2.462 3.692 4.8 3.692zM9.846 3.692c1.354 0 2.462 1.108 2.462 2.462s-1.108 2.462-2.462 2.462-2.462-1.108-2.462-2.462 1.108-2.462 2.462-2.462z"></path>
<path d="M19.692 20.923c2.708 0 4.923-2.215 4.923-4.923s-2.215-4.923-4.923-4.923c-2.338 0-4.185 1.6-4.8 3.692h-12.431v2.462h12.431c0.615 2.092 2.462 3.692 4.8 3.692zM19.692 13.538c1.354 0 2.462 1.108 2.462 2.462s-1.108 2.462-2.462 2.462-2.462-1.108-2.462-2.462 1.108-2.462 2.462-2.462z"></path>
<path d="M9.846 20.923c-2.338 0-4.185 1.6-4.8 3.692h-2.585v2.462h2.585c0.492 2.092 2.462 3.692 4.8 3.692 2.708 0 4.923-2.215 4.923-4.923s-2.215-4.923-4.923-4.923zM9.846 28.308c-1.354 0-2.462-1.108-2.462-2.462s1.108-2.462 2.462-2.462 2.462 1.108 2.462 2.462-1.108 2.462-2.462 2.462z"></path>
</svg>
