<?xml version="1.0" encoding="utf-8"?>
<!-- Generated by IcoMoon.io -->
<!DOCTYPE svg PUBLIC "-//W3C//DTD SVG 1.1//EN" "http://www.w3.org/Graphics/SVG/1.1/DTD/svg11.dtd">
<svg version="1.1" xmlns="http://www.w3.org/2000/svg" xmlns:xlink="http://www.w3.org/1999/xlink" width="32" height="32" viewBox="0 0 32 32">
<path fill="#000" d="M15.508 7.385c-1.969 0-3.692 1.231-4.308 3.077l-0.369 1.108 2.215 0.738 0.369-1.108c0.369-0.862 1.231-1.477 2.215-1.477 1.231 0 2.338 0.985 2.338 2.338 0 0.738-0.246 0.985-1.108 1.6-0.985 0.738-2.338 1.723-2.338 4.185v1.108h2.338v-1.108c0-1.354 0.492-1.723 1.354-2.338s2.092-1.477 2.092-3.446c-0.123-2.585-2.215-4.677-4.8-4.677z"></path>
<path fill="#010101" d="M17.231 22.892c0 0.952-0.771 1.723-1.723 1.723s-1.723-0.771-1.723-1.723c0-0.952 0.771-1.723 1.723-1.723s1.723 0.771 1.723 1.723z"></path>
</svg>
