<svg style="position: absolute; width: 0; height: 0; overflow: hidden;" version="1.1" xmlns="http://www.w3.org/2000/svg" xmlns:xlink="http://www.w3.org/1999/xlink">
<defs>
<symbol id="icon-legend" viewBox="0 0 32 32">
<title>legend</title>
<path class="path1" d="M13.333 12c0 0.736-0.597 1.333-1.333 1.333s-1.333-0.597-1.333-1.333c0-0.736 0.597-1.333 1.333-1.333s1.333 0.597 1.333 1.333z"></path>
<path class="path2" d="M14.667 11.333h6.667v1.333h-6.667v-1.333z"></path>
<path class="path3" d="M13.333 16c0 0.736-0.597 1.333-1.333 1.333s-1.333-0.597-1.333-1.333c0-0.736 0.597-1.333 1.333-1.333s1.333 0.597 1.333 1.333z"></path>
<path class="path4" d="M14.667 15.333h6.667v1.333h-6.667v-1.333z"></path>
<path class="path5" d="M13.333 20c0 0.736-0.597 1.333-1.333 1.333s-1.333-0.597-1.333-1.333c0-0.736 0.597-1.333 1.333-1.333s1.333 0.597 1.333 1.333z"></path>
<path class="path6" d="M14.667 19.333h6.667v1.333h-6.667v-1.333z"></path>
</symbol>
<symbol id="icon-expand" viewBox="0 0 32 32">
<title>expand</title>
<path class="path1" d="M16 10.338l-9.477 9.477 1.723 1.846 7.754-7.754 7.754 7.754 1.723-1.846z"></path>
</symbol>
<symbol id="icon-filters" viewBox="0 0 32 32">
<title>filters</title>
<path class="path1" d="M17.231 4.923h12.308v2.462h-12.308v-2.462z"></path>
<path class="path2" d="M27.077 14.769h2.462v2.462h-2.462v-2.462z"></path>
<path class="path3" d="M17.231 24.615h12.308v2.462h-12.308v-2.462z"></path>
<path class="path4" d="M9.846 11.077c2.708 0 4.923-2.215 4.923-4.923s-2.215-4.923-4.923-4.923c-2.338 0-4.185 1.6-4.8 3.692h-2.585v2.462h2.585c0.615 2.092 2.462 3.692 4.8 3.692zM9.846 3.692c1.354 0 2.462 1.108 2.462 2.462s-1.108 2.462-2.462 2.462-2.462-1.108-2.462-2.462 1.108-2.462 2.462-2.462z"></path>
<path class="path5" d="M19.692 20.923c2.708 0 4.923-2.215 4.923-4.923s-2.215-4.923-4.923-4.923c-2.338 0-4.185 1.6-4.8 3.692h-12.431v2.462h12.431c0.615 2.092 2.462 3.692 4.8 3.692zM19.692 13.538c1.354 0 2.462 1.108 2.462 2.462s-1.108 2.462-2.462 2.462-2.462-1.108-2.462-2.462 1.108-2.462 2.462-2.462z"></path>
<path class="path6" d="M9.846 20.923c-2.338 0-4.185 1.6-4.8 3.692h-2.585v2.462h2.585c0.492 2.092 2.462 3.692 4.8 3.692 2.708 0 4.923-2.215 4.923-4.923s-2.215-4.923-4.923-4.923zM9.846 28.308c-1.354 0-2.462-1.108-2.462-2.462s1.108-2.462 2.462-2.462 2.462 1.108 2.462 2.462-1.108 2.462-2.462 2.462z"></path>
</symbol>
<symbol id="icon-question" viewBox="0 0 32 32">
<title>question</title>
<path class="path1" d="M15.508 7.385c-1.969 0-3.692 1.231-4.308 3.077l-0.369 1.108 2.215 0.738 0.369-1.108c0.369-0.862 1.231-1.477 2.215-1.477 1.231 0 2.338 0.985 2.338 2.338 0 0.738-0.246 0.985-1.108 1.6-0.985 0.738-2.338 1.723-2.338 4.185v1.108h2.338v-1.108c0-1.354 0.492-1.723 1.354-2.338s2.092-1.477 2.092-3.446c-0.123-2.585-2.215-4.677-4.8-4.677z"></path>
<path class="path2" d="M17.231 22.892c0 0.952-0.771 1.723-1.723 1.723s-1.723-0.771-1.723-1.723c0-0.952 0.771-1.723 1.723-1.723s1.723 0.771 1.723 1.723z"></path>
</symbol>
<symbol id="icon-arrow-up" viewBox="0 0 32 32">
<title>arrow-up</title>
<path class="path1" d="M5.176 14.918v0c0.676 0.676 1.894 0.676 2.571 0l6.494-6.494v20.159c0 0.947 0.812 1.759 1.759 1.759v0c0.947 0 1.759-0.812 1.759-1.759v-20.159l6.494 6.494c0.676 0.676 1.894 0.676 2.571 0v0c0.676-0.676 0.676-1.894 0-2.571l-10.824-10.824-10.824 10.824c-0.676 0.676-0.676 1.894 0 2.571z"></path>
</symbol>
<symbol id="icon-arrow-down" viewBox="0 0 32 32">
<title>arrow-down</title>
<path class="path1" d="M26.824 17.082v0c-0.676-0.676-1.894-0.676-2.571 0l-6.494 6.494v-20.159c0-0.947-0.812-1.759-1.759-1.759v0c-0.947 0-1.759 0.812-1.759 1.759v20.159l-6.494-6.494c-0.676-0.676-1.894-0.676-2.571 0v0c-0.676 0.676-0.676 1.894 0 2.571l10.824 10.824 10.824-10.824c0.676-0.676 0.676-1.894 0-2.571z"></path>
</symbol>
<symbol id="icon-arrow-right" viewBox="0 0 32 32">
<title>arrow-right</title>
<path class="path1" d="M17.082 5.176v0c-0.676 0.676-0.676 1.894 0 2.571l6.494 6.494h-20.159c-0.947 0-1.759 0.812-1.759 1.759v0c0 0.947 0.812 1.759 1.759 1.759h20.159l-6.494 6.494c-0.676 0.676-0.676 1.894 0 2.571v0c0.676 0.676 1.894 0.676 2.571 0l10.824-10.824-10.824-10.824c-0.676-0.676-1.894-0.676-2.571 0z"></path>
</symbol>
<symbol id="icon-arrow-left" viewBox="0 0 32 32">
<title>arrow-left</title>
<path class="path1" d="M14.918 26.824v0c0.676-0.676 0.676-1.894 0-2.571l-6.494-6.494h20.159c0.947 0 1.759-0.812 1.759-1.759v0c0-0.947-0.812-1.759-1.759-1.759h-20.159l6.494-6.494c0.676-0.676 0.676-1.894 0-2.571v0c-0.676-0.676-1.894-0.676-2.571 0l-10.824 10.824 10.824 10.824c0.676 0.676 1.894 0.676 2.571 0z"></path>
</symbol>
<symbol id="icon-cross" viewBox="0 0 32 32">
<title>cross</title>
<path class="path1" d="M25.333 5.333q0.573 0 0.953 0.38t0.38 0.953q0 0.563-0.385 0.948l-8.396 8.385 8.396 8.385q0.385 0.385 0.385 0.948 0 0.573-0.38 0.953t-0.953 0.38q-0.563 0-0.948-0.385l-8.385-8.396-8.385 8.396q-0.385 0.385-0.948 0.385-0.573 0-0.953-0.38t-0.38-0.953q0-0.563 0.385-0.948l8.396-8.385-8.396-8.385q-0.385-0.385-0.385-0.948 0-0.573 0.38-0.953t0.953-0.38q0.563 0 0.948 0.385l8.385 8.396 8.385-8.396q0.385-0.385 0.948-0.385z"></path>
</symbol>
<symbol id="icon-share" viewBox="0 0 32 32">
<title>share</title>
<path class="path1" d="M17.254 18.877v6.491l10.622-10.622-10.622-10.622v6.491c-4.721 0.147-13.278 2.213-13.278 13.278v3.836l1.918-3.246c2.508-4.131 5.016-5.459 11.36-5.606z"></path>
</symbol>
<symbol id="icon-checkbox" viewBox="0 0 32 32">
<title>checkbox</title>
<path class="path1" d="M14 22.8l-6.8-6.8 2.8-2.8 4 4 8-8 2.8 2.8z"></path>
</symbol>
<symbol id="icon-country" viewBox="0 0 28 32">
<title>country</title>
<path class="path1" d="M12.852 31.69c-0.103 0-0.206-0.052-0.258-0.155s-0.103-0.258-0.206-0.413c-0.258-0.516-0.516-1.084-0.361-1.497s0.929-0.723 1.342-0.877c-0.052-0.465-0.155-1.342 0.361-1.755 0.465-0.361 1.084-0.206 1.497-0.103 0.103 0.052 0.31 0.103 0.361 0.103 0.103-0.258 0.155-1.29 0.155-2.116 0-0.052 0-0.155 0.052-0.206s1.187-1.29 2.323-1.445c1.084-0.155 2.581 1.342 2.89 1.703 0.413 0.103 2.374 0.568 3.51 1.135 0.103 0.052 0.206 0.206 0.103 0.361-0.052 0.103-0.206 0.206-0.361 0.103-1.239-0.619-3.51-1.135-3.51-1.135-0.052 0-0.103-0.052-0.155-0.103-0.413-0.465-1.755-1.703-2.529-1.6-0.826 0.103-1.703 0.981-1.961 1.239 0.052 2.323-0.31 2.477-0.465 2.529-0.206 0.052-0.465 0-0.723-0.052-0.361-0.103-0.774-0.206-1.032 0-0.361 0.31-0.206 1.187-0.155 1.497 0.052 0.155-0.052 0.258-0.155 0.31-0.619 0.206-1.187 0.465-1.239 0.671s0.206 0.774 0.361 1.084c0.103 0.206 0.155 0.361 0.206 0.465 0.052 0.155-0.052 0.258-0.155 0.31 0.155-0.052 0.155-0.052 0.103-0.052zM6.245 29.316c-0.103 0-0.155-0.052-0.206-0.103-0.103-0.103-0.052-0.258 0.052-0.361 0.774-0.568 1.394-2.116 1.394-2.116 0-0.052 0.052-0.103 0.103-0.103 0 0 0.671-0.465 0.877-1.032s0-1.394 0-1.394c0-0.052 0-0.103 0-0.155 0.31-0.877 0.516-1.961 0.361-2.219-0.206-0.31-0.981-0.619-1.445-0.774-0.052 0-0.103-0.052-0.155-0.103 0 0-0.516-0.877-1.445-1.032-0.774-0.103-1.652-0.619-1.652-1.858 0-1.084 1.032-2.787 1.084-2.839 0-0.052 0.052-0.052 0.103-0.103 0.465-0.206 1.032-0.619 1.084-0.774 0.103-0.258 0.155-0.929 0.206-1.187 0-0.052 0-0.103 0.052-0.103 0.258-0.465 0.877-1.806 0.465-2.581-0.103-0.155-0.516-0.361-0.877-0.465-0.052 0-0.103-0.052-0.155-0.103l-1.187-1.806c-0.103-0.103-0.052-0.258 0.052-0.361 0.052 0 0.206 0 0.31 0.103l1.135 1.703c0.258 0.103 0.877 0.31 1.084 0.671 0.568 1.032-0.258 2.684-0.413 3.045 0 0.206-0.052 0.929-0.206 1.29-0.155 0.413-0.929 0.826-1.29 0.981-0.155 0.31-0.929 1.703-0.929 2.529 0 0.877 0.619 1.29 1.239 1.342 1.032 0.155 1.6 0.929 1.755 1.239 0.361 0.103 1.342 0.413 1.652 0.981s-0.155 2.116-0.31 2.581c0.052 0.258 0.155 0.981-0.052 1.6s-0.774 1.084-0.981 1.239c-0.155 0.31-0.774 1.652-1.548 2.271-0.052 0-0.103 0-0.155 0z"></path>
<path class="path2" d="M13.935 31.742c-7.535 0-13.677-6.142-13.677-13.677s6.142-13.677 13.677-13.677c0.052 0 0.155 0 0.206 0h0.103c0.155 0 0.258 0.103 0.258 0.258s-0.103 0.258-0.258 0.258h-0.103c-0.052 0-0.103 0-0.155 0-7.329 0-13.213 5.884-13.213 13.161s5.884 13.161 13.161 13.161 13.161-5.884 13.161-13.161c0-1.394-0.206-2.735-0.619-4.026-0.052-0.155 0.052-0.258 0.155-0.31 0.155-0.052 0.258 0.052 0.31 0.155 0.413 1.342 0.671 2.787 0.671 4.232 0 7.484-6.142 13.626-13.677 13.626z"></path>
<path class="path3" d="M20.129 16.258c-0.052 0-0.103 0-0.155-0.052-0.258-0.258-6.297-5.884-6.297-9.652 0-3.923 3.303-6.297 6.452-6.297s6.452 2.374 6.452 6.297c0 3.768-6.039 9.394-6.297 9.652-0.052 0.052-0.103 0.052-0.155 0.052zM20.129 0.774c-2.942 0-5.935 2.168-5.935 5.781 0 3.2 4.955 8.155 5.935 9.084 0.981-0.981 5.935-5.884 5.935-9.084 0-3.613-2.994-5.781-5.935-5.781z"></path>
<path class="path4" d="M20.129 9.032c-1.29 0-2.323-1.032-2.323-2.323s1.032-2.323 2.323-2.323 2.323 1.032 2.323 2.323-1.032 2.323-2.323 2.323zM20.129 4.903c-0.981 0-1.806 0.826-1.806 1.806s0.826 1.806 1.806 1.806 1.806-0.826 1.806-1.806-0.826-1.806-1.806-1.806z"></path>
</symbol>
<symbol id="icon-eye" viewBox="0 0 32 32">
<title>eye</title>
<path class="path1" d="M16 6c-8.837 0-16 10-16 10s7.163 10 16 10 16-10 16-10-7.163-10-16-10zM16 22c-3.313 0-6-2.687-6-6s2.687-6 6-6 6 2.687 6 6-2.687 6-6 6zM16 12c-2.209 0-4 1.791-4 4s1.791 4 4 4 4-1.791 4-4-1.791-4-4-4z"></path>
</symbol>
<symbol id="icon-facebook" viewBox="0 0 33 32">
<title>facebook</title>
<path class="path1" d="M22.155 11.352h-3.983v-2.656c0-0.885 0.443-1.328 0.885-1.328h2.656v-4.426l-3.541-0.443c-4.426 0-5.311 3.541-5.311 5.754v3.098h-2.656v4.869h2.656v13.279h5.311v-13.279h3.541l0.443-4.869z"></path>
</symbol>
<symbol id="icon-twitter" viewBox="0 0 33 32">
<title>twitter</title>
<path class="path1" d="M26.446 8.727c1.058-0.793 1.851-1.851 2.38-2.909-1.058 0.529-2.116 1.058-3.438 1.322-1.058-1.322-2.38-1.851-3.967-1.851-2.909 0-5.289 2.38-5.289 5.289 0 0.529 0 0.793 0.264 1.322-4.76-0.264-8.727-2.38-11.372-5.554-0.529 0.793-0.793 1.587-0.793 2.645 0 1.851 1.058 3.438 2.38 4.496-0.793 0-1.587-0.264-2.38-0.793 0 0 0 0 0 0 0 2.645 1.851 4.76 4.231 5.289-0.264 0.264-0.793 0.529-1.322 0.529-0.264 0-0.793 0-1.058 0 0.793 2.116 2.645 3.702 5.025 3.702-1.851 1.322-3.967 2.116-6.612 2.116-0.529 0-0.793 0-1.322 0 2.38 1.587 5.289 2.38 8.198 2.38 10.050 0 15.339-8.198 15.339-15.339 0-0.264 0-0.529 0-0.793 1.058-0.793 1.851-1.851 2.645-2.909-0.793 0.529-1.851 0.793-2.909 1.058z"></path>
</symbol>
<symbol id="icon-linkedin" viewBox="0 0 32 32">
<title>linkedin</title>
<path class="path1" d="M12 9h5.535v2.837h0.079c0.77-1.381 2.655-2.837 5.464-2.837 5.842 0 6.922 3.637 6.922 8.367v9.633h-5.769v-8.54c0-2.037-0.042-4.657-3.001-4.657-3.005 0-3.463 2.218-3.463 4.509v8.688h-5.767v-18z"></path>
<path class="path2" d="M2 9h6v18h-6v-18z"></path>
<path class="path3" d="M8 4c0 1.657-1.343 3-3 3s-3-1.343-3-3c0-1.657 1.343-3 3-3s3 1.343 3 3z"></path>
</symbol>
<symbol id="icon-arrow-left-2" viewBox="0 0 18 32">
<title>arrow-left-2</title>
<path class="path1" d="M16 31.6c-0.4 0-0.8-0.2-1-0.4l-14-14c-0.6-0.6-0.6-1.6 0-2.2l14-14c0.6-0.6 1.6-0.6 2.2 0s0.6 1.6 0 2.2l-13.2 12.8 13 13c0.6 0.6 0.6 1.6 0 2.2-0.2 0.4-0.6 0.4-1 0.4z"></path>
</symbol>
<symbol id="icon-arrow-right-2" viewBox="0 0 18 32">
<title>arrow-right-2</title>
<path class="path1" d="M2 0.4c0.4 0 0.8 0.2 1 0.4l14 14c0.6 0.6 0.6 1.6 0 2.2l-14 14c-0.6 0.6-1.6 0.6-2.2 0s-0.6-1.6 0-2.2l13.2-12.8-13-13c-0.6-0.6-0.6-1.6 0-2.2 0.2-0.4 0.6-0.4 1-0.4z"></path>
</symbol>
<symbol id="icon-arrow-down-2" viewBox="0 0 32 32">
<title>arrow-down-2</title>
<path class="path1" d="M31.35 9.1c0 0.4-0.2 0.8-0.4 1l-14 14c-0.6 0.6-1.6 0.6-2.2 0l-14-14c-0.6-0.6-0.6-1.6 0-2.2s1.6-0.6 2.2 0l12.8 13.2 13-13c0.6-0.6 1.6-0.6 2.2 0 0.4 0.2 0.4 0.6 0.4 1z"></path>
</symbol>
<symbol id="icon-arrow-up-2" viewBox="0 0 32 32">
<title>arrow-up-2</title>
<path class="path1" d="M31.35 22.9c0-0.4-0.2-0.8-0.4-1l-14-14c-0.6-0.6-1.6-0.6-2.2 0l-14 14c-0.6 0.6-0.6 1.6 0 2.2s1.6 0.6 2.2 0l12.8-13.2 13 13c0.6 0.6 1.6 0.6 2.2 0 0.4-0.2 0.4-0.6 0.4-1z"></path>
</symbol>
<symbol id="icon-search" viewBox="0 0 32 32">
<title>search</title>
<path class="path1" d="M30.171 26.667l-5.79-5.943c1.371-2.133 2.286-4.724 2.286-7.314 0-7.314-5.943-13.41-13.257-13.41s-13.41 5.943-13.41 13.41 5.943 13.41 13.257 13.41c2.743 0 5.181-0.762 7.314-2.286l5.79 5.79c0.457 0.457 1.371 0.457 1.829 0l1.829-1.829c0.61-0.457 0.61-1.371 0.152-1.829zM13.257 24.076c-5.79 0-10.667-4.876-10.667-10.667s4.724-10.667 10.667-10.667 10.667 4.876 10.667 10.667-4.724 10.667-10.667 10.667z"></path>
</symbol>
<symbol id="icon-plus" viewBox="0 0 32 32">
<title>plus</title>
<path class="path1" d="M16 2.667q0.552 0 0.943 0.391t0.391 0.943v10.667h10.667q0.552 0 0.943 0.391t0.391 0.943-0.391 0.943-0.943 0.391h-10.667v10.667q0 0.552-0.391 0.943t-0.943 0.391-0.943-0.391-0.391-0.943v-10.667h-10.667q-0.552 0-0.943-0.391t-0.391-0.943 0.391-0.943 0.943-0.391h10.667v-10.667q0-0.552 0.391-0.943t0.943-0.391z"></path>
</symbol>
<symbol id="icon-check" viewBox="0 0 32 32">
<title>check</title>
<path class="path1" d="M28 6.667q0.573 0 0.953 0.38t0.38 0.953q0 0.563-0.385 0.948l-16 16q-0.385 0.385-0.948 0.385t-0.948-0.385l-8-8q-0.385-0.385-0.385-0.948 0-0.573 0.38-0.953t0.953-0.38q0.563 0 0.948 0.385l7.052 7.063 15.052-15.063q0.385-0.385 0.948-0.385z"></path>
</symbol>
<symbol id="icon-download" viewBox="0 0 32 32">
<title>download</title>
<path class="path1" d="M14.267 3v6.5h-4.767l6.5 6.5 6.5-6.5h-4.767v-6.5z"></path>
<path class="path2" d="M22.5 3v3.25h3.25v13h-19.5v-13h3.25v-3.25h-4.767c-1.083 0-1.733 0.65-1.733 1.733v22.75c0 0.867 0.65 1.517 1.733 1.517h22.75c0.867 0 1.733-0.65 1.733-1.733v-22.533c-0.217-1.083-0.867-1.733-1.95-1.733h-4.767z"></path>
</symbol>
<symbol id="icon-info" viewBox="0 0 13 32">
<title>info</title>
<path class="path1" d="M10.536 10.806l-3.924 14.082c-0.231 0.693-0.231 1.385-0.231 1.616s0 0.231 0.231 0.462c0 0.231 0.231 0.231 0.462 0.231s0.462 0 0.693-0.231c0.693-0.462 1.385-1.385 2.078-2.77l0.693 0.462c-2.309 3.232-4.386 5.079-6.695 5.079-0.923 0-1.616-0.231-2.078-0.693s-0.693-1.154-0.693-1.847c0-0.462 0-1.154 0.231-1.847l2.77-9.465c0.462-1.154 0.462-1.847 0.462-2.309 0-0.231-0.231-0.462-0.462-0.693s-0.462-0.231-0.923-0.231c-0.231 0-0.462 0-0.693 0l0.231-0.693z"></path>
<path class="path2" d="M11.459 7.343c-0.462 0.462-1.154 0.923-2.078 0.923-0.693 0-1.385-0.231-2.078-0.923-0.462-0.693-0.693-1.385-0.693-2.078s0.231-1.385 0.923-2.078c0.462-0.462 1.154-0.923 2.078-0.923s1.616 0.231 2.078 0.923c0.462 0.462 0.693 1.154 0.693 2.078 0 0.693-0.231 1.385-0.923 2.078z"></path>
</symbol>
</defs>
</svg>
