<?xml version="1.0" encoding="utf-8"?>
<!-- Generated by IcoMoon.io -->
<!DOCTYPE svg PUBLIC "-//W3C//DTD SVG 1.1//EN" "http://www.w3.org/Graphics/SVG/1.1/DTD/svg11.dtd">
<svg version="1.1" xmlns="http://www.w3.org/2000/svg" xmlns:xlink="http://www.w3.org/1999/xlink" width="32" height="32" viewBox="0 0 32 32">
<path d="M30.171 26.667l-5.79-5.943c1.371-2.133 2.286-4.724 2.286-7.314 0-7.314-5.943-13.41-13.257-13.41s-13.41 5.943-13.41 13.41 5.943 13.41 13.257 13.41c2.743 0 5.181-0.762 7.314-2.286l5.79 5.79c0.457 0.457 1.371 0.457 1.829 0l1.829-1.829c0.61-0.457 0.61-1.371 0.152-1.829zM13.257 24.076c-5.79 0-10.667-4.876-10.667-10.667s4.724-10.667 10.667-10.667 10.667 4.876 10.667 10.667-4.724 10.667-10.667 10.667z"></path>
</svg>
