<?xml version="1.0" encoding="utf-8"?>
<!-- Generated by IcoMoon.io -->
<!DOCTYPE svg PUBLIC "-//W3C//DTD SVG 1.1//EN" "http://www.w3.org/Graphics/SVG/1.1/DTD/svg11.dtd">
<svg version="1.1" xmlns="http://www.w3.org/2000/svg" xmlns:xlink="http://www.w3.org/1999/xlink" width="32" height="32" viewBox="0 0 32 32">
<path d="M13.553 23.529c-5.459 0-9.788-4.141-9.788-9.412s4.329-9.6 9.788-9.6 9.788 4.329 9.788 9.6-4.329 9.412-9.788 9.412v0zM24.282 22.024c1.694-2.259 2.635-4.894 2.635-7.906 0-7.341-6.024-13.365-13.365-13.365s-13.553 6.024-13.553 13.365 6.212 13.365 13.553 13.365c3.012 0 6.024-0.941 8.094-2.635l5.835 5.647c0.376 0.376 0.941 0.565 1.318 0.565s0.941-0.188 1.318-0.565c0.753-0.753 0.753-1.882 0-2.635l-5.835-5.835z"></path>
</svg>
